<svg version="1.1" id="Layer_1" xmlns="http://www.w3.org/2000/svg" xmlns:xlink="http://www.w3.org/1999/xlink" x="0px" y="0px"
	 width="100%" viewBox="0 0 1024 1024" enable-background="new 0 0 1024 1024" xml:space="preserve">
<path fill="#000000" opacity="1.000000" stroke="none" 
	d="
M325.162537,319.971405 
	C359.332428,307.352264 389.377655,313.344238 415.120941,338.662628 
	C425.712280,349.079102 432.210815,362.073730 434.902527,376.663788 
	C435.725708,381.125916 437.632324,381.859131 441.489685,381.850677 
	C478.822357,381.768951 516.155334,381.803345 553.488220,381.826508 
	C580.987366,381.843536 608.486633,381.868591 635.985657,381.955963 
	C639.888916,381.968353 643.349548,382.121185 643.282410,376.535950 
	C643.250427,373.883087 645.521423,372.602325 648.228455,372.695251 
	C664.217896,373.244263 680.282654,370.614044 696.169434,372.697815 
	C717.230225,375.460236 738.290405,373.817871 759.332581,373.950531 
	C816.662964,374.312012 873.997192,374.053406 931.329895,374.050629 
	C941.655701,374.050140 945.808350,378.876160 944.718262,389.410156 
	C943.687622,399.368896 938.121826,407.098724 932.195374,414.549713 
	C912.283081,439.584534 892.171936,464.461426 872.295044,489.524139 
	C868.539978,494.258789 863.967773,497.259277 858.144165,497.988312 
	C855.217834,498.354706 853.829407,499.827667 852.435608,502.044891 
	C845.430847,513.188049 838.327942,524.269470 831.247131,535.364746 
	C828.452576,539.743774 827.626038,539.750549 824.866028,535.278320 
	C820.140869,527.621887 815.507812,519.908691 810.764832,512.263428 
	C809.117554,509.608093 807.807800,506.677948 805.296875,504.631805 
	C802.851135,505.025726 802.186157,507.101410 801.155640,508.719635 
	C795.517090,517.573364 789.934204,526.462646 784.330383,535.338562 
	C781.638733,539.601807 780.611511,539.633484 777.708069,535.367065 
	C771.708008,526.550598 765.782715,517.683167 759.762878,508.880341 
	C758.476929,506.999847 757.569031,504.742035 755.388245,503.655640 
	C753.503296,503.904938 753.010193,505.474152 752.253357,506.706635 
	C746.847961,515.508911 741.473694,524.330383 736.097595,533.150635 
	C733.432739,537.522705 732.011475,537.695129 728.805115,533.597046 
	C721.823669,524.674133 714.968567,515.652588 708.045654,506.683807 
	C707.043213,505.385132 705.951355,504.155487 704.968445,502.974945 
	C702.479675,503.376007 701.976440,505.328461 701.056580,506.807190 
	C695.776428,515.294678 690.543152,523.811340 685.289490,532.315308 
	C681.060730,539.160339 680.386475,539.158691 675.927551,532.703003 
	C670.057556,524.204285 664.117554,515.753845 658.195618,507.291046 
	C657.536072,506.348511 656.954102,505.273376 655.480957,505.107025 
	C653.561340,506.051239 653.110291,508.090820 652.386475,509.886993 
	C649.149475,517.919495 646.031555,526.000427 642.748169,534.013672 
	C640.851196,538.643494 639.524536,538.794373 636.272522,534.883484 
	C627.003662,523.736816 617.818848,512.519897 608.507812,501.408752 
	C604.679382,496.840210 601.214050,496.924683 597.396484,501.539642 
	C573.825439,530.034363 550.282227,558.552063 526.733215,587.065002 
	C526.001099,587.951477 525.097839,588.756348 525.113892,590.474976 
	C527.569885,592.821716 530.887756,591.461731 533.837769,591.932922 
	C541.457031,593.149780 546.962341,590.287476 552.161499,584.614929 
	C560.141296,575.908569 568.989441,567.996887 577.489380,559.768921 
	C582.926819,554.505432 583.416626,554.475830 587.999512,560.826965 
	C593.263611,568.122253 598.297363,575.583679 603.437378,582.968567 
	C604.377014,584.318542 605.346252,585.647888 606.417725,587.149109 
	C609.173035,586.005432 610.793518,583.881226 612.587341,581.994751 
	C619.132324,575.111572 625.753479,568.296753 632.141846,561.270691 
	C634.931824,558.202209 637.041626,558.419067 639.278015,561.637207 
	C644.506958,569.161865 649.740601,576.683350 654.998352,584.187805 
	C656.223083,585.935974 657.041626,588.014160 658.976807,589.296814 
	C661.208557,589.026062 662.262024,587.162048 663.606812,585.782043 
	C671.631592,577.547180 679.598267,569.255859 687.597900,560.996399 
	C691.507690,556.959534 692.618713,556.889038 696.190002,561.503235 
	C701.491150,568.352417 706.515991,575.415405 711.662720,582.384277 
	C712.635071,583.700867 713.627075,585.002869 714.729736,586.470947 
	C717.274231,585.325562 718.261169,583.130859 719.634338,581.360413 
	C725.148865,574.250305 730.599365,567.090637 736.107178,559.975220 
	C739.537659,555.543457 740.933838,555.694336 743.150391,560.925659 
	C746.852905,569.664246 750.424194,578.458557 754.042297,587.232849 
	C756.091980,592.203491 756.972168,592.462036 760.877441,588.625854 
	C768.843079,580.801208 776.680054,572.845764 784.614258,564.988831 
	C789.385132,560.264282 790.677246,560.538269 793.249817,566.770142 
	C795.257874,571.634521 797.160645,576.542358 799.107727,581.424744 
	C802.421692,580.632996 802.973206,578.104370 804.117615,576.212158 
	C807.393738,570.795715 810.461914,565.253479 813.740356,559.838562 
	C815.652588,556.680359 817.692200,556.359070 819.422668,560.085754 
	C824.194214,570.361633 829.005859,580.672241 832.113342,591.561523 
	C835.531372,603.539124 832.856262,615.044312 827.080688,625.792725 
	C815.877625,646.641846 798.552002,661.238037 778.029907,672.144348 
	C757.261841,683.181519 735.086182,688.700378 711.359985,688.498413 
	C671.197998,688.156372 631.030640,688.365723 590.865845,688.445923 
	C560.563354,688.506409 530.259460,688.987732 499.959473,688.788208 
	C478.489319,688.646912 457.025024,688.558655 435.557281,688.857056 
	C432.674530,688.897156 429.981018,689.380981 427.299286,690.453247 
	C417.249908,694.471558 407.200470,698.497620 397.057983,702.270752 
	C393.361206,703.645935 391.142822,705.777161 389.486938,709.467346 
	C382.722961,724.540710 370.810516,732.922546 354.315216,733.122131 
	C338.677277,733.311401 326.910065,725.917053 319.807343,711.736023 
	C317.152527,706.435425 316.065308,700.625244 316.140381,694.811218 
	C316.180664,691.693298 315.136536,689.977905 313.001495,688.096191 
	C269.500824,649.757874 226.024094,611.392334 182.608582,572.957581 
	C167.888489,559.926208 153.307938,546.735962 138.756317,533.516296 
	C135.059906,530.158203 131.339874,528.240540 125.972923,528.119324 
	C114.154198,527.852173 105.412788,521.794861 100.453583,511.018341 
	C95.378761,499.990631 96.915604,489.352783 104.532036,480.108246 
	C112.202744,470.797760 122.441940,467.824127 134.178680,470.657288 
	C136.803345,471.290863 138.759796,470.968903 141.120117,469.539429 
	C184.145691,443.482025 227.238724,417.535950 270.338776,391.601685 
	C273.842224,389.493530 276.311768,387.418640 277.006042,382.618439 
	C281.286652,353.021790 297.792145,332.476685 325.162537,319.971405 
M504.500031,411.282562 
	C486.171112,411.278625 467.842194,411.255676 449.513336,411.284790 
	C445.191345,411.291656 440.352905,410.289703 436.685394,411.890411 
	C432.582916,413.680908 433.356262,419.442566 431.886414,423.406525 
	C419.840790,455.890747 389.101990,476.761169 354.314331,475.342468 
	C319.171753,473.909363 294.770935,456.775482 281.350555,424.162933 
	C280.864563,422.981964 280.593933,421.548553 279.040802,421.025513 
	C277.135376,421.064758 275.704590,422.316223 274.161530,423.249969 
	C238.965866,444.547791 203.869461,466.011963 168.523270,487.056732 
	C161.175293,491.431641 155.121872,495.484192 155.777344,505.394379 
	C155.971313,508.326904 156.155029,510.327576 158.374405,512.199036 
	C162.575119,515.741211 166.651886,519.430786 170.767960,523.072937 
	C222.908508,569.209290 275.075470,615.315918 327.112000,661.569275 
	C330.111969,664.235840 332.121216,664.642761 335.706970,662.721313 
	C350.288757,654.907410 368.277496,656.540527 379.758575,667.863281 
	C384.929443,672.962891 388.495544,671.722656 393.954712,669.582764 
	C412.342865,662.375366 427.302917,650.919006 440.509613,636.295166 
	C457.687866,617.273743 477.387177,600.621155 493.660858,580.692505 
	C508.408722,562.632446 522.996155,544.433350 538.087280,526.663330 
	C568.816772,490.478912 599.850464,454.552826 630.702637,418.472260 
	C632.251221,416.661224 634.474304,415.166473 634.875183,411.283600 
	C591.596802,411.283600 548.548462,411.283600 504.500031,411.282562 
z"/>
</svg>